<svg width="165" height="32" viewBox="0 0 165 32" fill="none" xmlns="http://www.w3.org/2000/svg">
<path fill-rule="evenodd" clip-rule="evenodd" d="M18.9529 3.86302C18.741 3.44127 18.2027 3.29877 17.8058 3.55931L13.527 6.36781C13.3664 6.47322 13.2502 6.63291 13.2003 6.81693L11.2834 13.8859C11.2335 14.0699 11.2533 14.2656 11.339 14.4363L13.6234 18.9824C13.8353 19.4042 14.3736 19.5467 14.7705 19.2862L19.0493 16.4777C19.2099 16.3723 19.3261 16.2126 19.376 16.0285L21.2929 8.95954C21.3428 8.77552 21.323 8.57984 21.2373 8.4092L18.9529 3.86302ZM14.9184 8.03695C14.9683 7.85294 15.0845 7.69324 15.2451 7.58783L17.0313 6.41543C17.4282 6.15489 17.9665 6.29739 18.1784 6.71914L19.132 8.61693C19.2177 8.78756 19.2375 8.98325 19.1876 9.16726L17.6578 14.8085C17.6079 14.9925 17.4918 15.1522 17.3312 15.2576L15.545 16.43C15.1481 16.6906 14.6098 16.5481 14.3979 16.1263L13.4443 14.2285C13.3586 14.0579 13.3388 13.8622 13.3887 13.6782L14.9184 8.03695Z" fill="black"/>
<path d="M10.4446 17.0806C10.7872 17.1713 11.0269 17.4761 11.0313 17.8265L11.0731 21.1714C11.0762 21.4204 10.9592 21.6559 10.758 21.8058L7.10747 24.524C6.91285 24.6689 6.66152 24.7172 6.42613 24.6549L3.05397 23.7621C2.70725 23.6703 2.46643 23.3595 2.4672 23.0048L2.4745 19.6834C2.47505 19.4358 2.59423 19.203 2.79583 19.0559L6.5113 16.3443C6.51996 16.338 6.52873 16.3319 6.53761 16.3259C5.28525 14.813 3.65755 14.1326 1.94923 13.7139C1.64881 14.1865 1.02122 14.3432 0.52795 14.0618C0.0230894 13.7738 -0.149889 13.1359 0.141593 12.6371C0.433074 12.1382 1.07864 11.9673 1.5835 12.2553C1.91801 12.4461 2.10682 12.7906 2.11136 13.1464C3.6815 13.533 5.24932 14.151 6.53502 15.4414C6.2803 14.5918 5.86369 13.7353 5.34698 12.9508C4.80796 12.1324 4.16831 11.4049 3.5071 10.8524C3.18162 11.0768 2.74114 11.1094 2.37476 10.9004C1.8699 10.6124 1.69692 9.97453 1.9884 9.47568C2.27988 8.97682 2.92545 8.8059 3.43031 9.09392C3.89329 9.35804 4.07716 9.91639 3.87969 10.3919C4.59873 10.9902 5.27989 11.7684 5.8469 12.6293C6.58173 13.745 7.13892 15.0209 7.33282 16.2567L10.4446 17.0806Z" fill="black"/>
<path d="M13.1323 20.658C13.5456 20.3436 14.1484 20.5032 14.3472 20.9797L14.7981 22.0604C14.9343 22.3869 14.8323 22.763 14.5492 22.9784L13.6118 23.6916C13.1985 24.006 12.5958 23.8464 12.3969 23.3699L11.946 22.2892C11.8098 21.9627 11.9118 21.5866 12.1949 21.3712L13.1323 20.658Z" fill="black"/>
<path d="M17.9002 22.8816C18.0316 23.2042 17.9318 23.5738 17.6551 23.7887L15.3832 25.5536C15.088 25.7829 14.9964 26.1855 15.1639 26.5175L15.343 26.8725C15.5667 27.3159 16.1459 27.4448 16.5403 27.1389L20.0446 24.4209C20.3214 24.2063 20.4216 23.8369 20.2905 23.5142L18.6325 19.4328C18.4453 18.9718 17.8762 18.7978 17.4582 19.0737L17.1187 19.2977C16.807 19.5034 16.684 19.8969 16.824 20.2404L17.9002 22.8816Z" fill="black"/>
<path d="M22.4352 25.0541C22.7119 24.8391 22.8118 24.4695 22.6803 24.147L21.6041 21.5057C21.4642 21.1622 21.5872 20.7688 21.8988 20.5631L22.2383 20.3391C22.6564 20.0632 23.2254 20.2372 23.4127 20.6982L25.0706 24.7796C25.2017 25.1022 25.1015 25.4716 24.8247 25.6863L21.3205 28.4042C20.9261 28.7101 20.3468 28.5813 20.1231 28.1379L19.944 27.7829C19.7766 27.4508 19.8681 27.0482 20.1633 26.8189L22.4352 25.0541Z" fill="black"/>
<path d="M31.3404 26.7888C31.4942 26.8429 31.4313 27.0704 31.271 27.0397L26.9894 26.2176C26.7281 26.1674 26.5647 25.909 26.6335 25.6549C26.7029 25.3992 26.9783 25.2562 27.2308 25.3449L31.3404 26.7888Z" fill="black"/>
<path fill-rule="evenodd" clip-rule="evenodd" d="M44 5.13415L44 26.8659C44 27.7684 43.1046 28.5 42 28.5C40.8954 28.5 40 27.7684 40 26.8659L40 5.13415C40 4.23163 40.8954 3.5 42 3.5C43.1046 3.5 44 4.23163 44 5.13415Z" fill="#FFEC16"/>
<path d="M53.152 10.544H57.632C58.1227 10.544 58.5813 10.624 59.008 10.784C59.4347 10.9333 59.8027 11.1467 60.112 11.424C60.432 11.6907 60.6827 12.0053 60.864 12.368C61.0453 12.7307 61.136 13.12 61.136 13.536C61.136 14.144 60.9867 14.656 60.688 15.072C60.4 15.4773 60.0373 15.7867 59.6 16V16.128C60.1867 16.3413 60.656 16.6773 61.008 17.136C61.3707 17.584 61.552 18.144 61.552 18.816C61.552 19.3067 61.4507 19.7493 61.248 20.144C61.056 20.528 60.7893 20.8587 60.448 21.136C60.1067 21.4133 59.7067 21.6267 59.248 21.776C58.8 21.9253 58.3147 22 57.792 22H53.152V10.544ZM57.472 15.216C57.9733 15.216 58.3573 15.0827 58.624 14.816C58.9013 14.5387 59.04 14.2133 59.04 13.84C59.04 13.4667 58.9067 13.1467 58.64 12.88C58.3733 12.6133 58.0053 12.48 57.536 12.48H55.312V15.216H57.472ZM57.712 20.016C58.256 20.016 58.672 19.8827 58.96 19.616C59.248 19.3387 59.392 18.9867 59.392 18.56C59.392 18.1333 59.2427 17.7813 58.944 17.504C58.656 17.216 58.224 17.072 57.648 17.072H55.312V20.016H57.712ZM68.3825 20.976H68.2545C68.0092 21.3707 67.6785 21.6853 67.2625 21.92C66.8465 22.144 66.3718 22.256 65.8385 22.256C64.8465 22.256 64.1052 21.952 63.6145 21.344C63.1345 20.736 62.8945 19.9253 62.8945 18.912V14.16H64.9905V18.656C64.9905 19.2213 65.1132 19.6427 65.3585 19.92C65.6145 20.1867 65.9825 20.32 66.4625 20.32C66.7505 20.32 67.0012 20.2613 67.2145 20.144C67.4385 20.016 67.6252 19.8507 67.7745 19.648C67.9345 19.4347 68.0518 19.1893 68.1265 18.912C68.2118 18.624 68.2545 18.32 68.2545 18V14.16H70.3505V22H68.3825V20.976ZM75.1719 22.256C74.6599 22.256 74.2012 22.192 73.7959 22.064C73.4012 21.936 73.0545 21.7707 72.7559 21.568C72.4679 21.3547 72.2225 21.1147 72.0199 20.848C71.8172 20.5707 71.6625 20.2933 71.5559 20.016L73.4279 19.216C73.6092 19.6213 73.8492 19.9253 74.1479 20.128C74.4572 20.32 74.7985 20.416 75.1719 20.416C75.5559 20.416 75.8599 20.3467 76.0839 20.208C76.3079 20.0693 76.4199 19.904 76.4199 19.712C76.4199 19.4987 76.3239 19.328 76.1319 19.2C75.9505 19.0613 75.6305 18.9387 75.1719 18.832L74.0679 18.592C73.8225 18.5387 73.5665 18.4533 73.2999 18.336C73.0439 18.2187 72.8092 18.0693 72.5959 17.888C72.3825 17.7067 72.2065 17.488 72.0679 17.232C71.9292 16.976 71.8599 16.6773 71.8599 16.336C71.8599 15.952 71.9399 15.6107 72.0999 15.312C72.2705 15.0133 72.4999 14.7627 72.7879 14.56C73.0759 14.3467 73.4119 14.1867 73.7959 14.08C74.1905 13.9627 74.6119 13.904 75.0599 13.904C75.8065 13.904 76.4732 14.0533 77.0599 14.352C77.6465 14.64 78.0785 15.104 78.3559 15.744L76.5479 16.48C76.3985 16.1707 76.1799 15.9467 75.8919 15.808C75.6039 15.6693 75.3159 15.6 75.0279 15.6C74.7292 15.6 74.4679 15.664 74.2439 15.792C74.0199 15.9093 73.9079 16.064 73.9079 16.256C73.9079 16.4373 73.9985 16.5813 74.1799 16.688C74.3719 16.7947 74.6279 16.8907 74.9479 16.976L76.1479 17.264C76.9479 17.456 77.5399 17.7653 77.9239 18.192C78.3185 18.608 78.5159 19.104 78.5159 19.68C78.5159 20.0213 78.4359 20.3467 78.2759 20.656C78.1159 20.9653 77.8865 21.2427 77.5879 21.488C77.2999 21.7227 76.9479 21.9093 76.5319 22.048C76.1265 22.1867 75.6732 22.256 75.1719 22.256ZM82.2663 21.616L78.9703 14.16H81.3543L83.3383 18.912H83.4503L85.3543 14.16H87.6903L82.7783 25.456H80.5223L82.2663 21.616ZM92.4176 10.544H96.8976C97.3883 10.544 97.847 10.624 98.2736 10.784C98.7003 10.9333 99.0683 11.1467 99.3776 11.424C99.6976 11.6907 99.9483 12.0053 100.13 12.368C100.311 12.7307 100.402 13.12 100.402 13.536C100.402 14.144 100.252 14.656 99.9536 15.072C99.6656 15.4773 99.303 15.7867 98.8656 16V16.128C99.4523 16.3413 99.9216 16.6773 100.274 17.136C100.636 17.584 100.818 18.144 100.818 18.816C100.818 19.3067 100.716 19.7493 100.514 20.144C100.322 20.528 100.055 20.8587 99.7136 21.136C99.3723 21.4133 98.9723 21.6267 98.5136 21.776C98.0656 21.9253 97.5803 22 97.0576 22H92.4176V10.544ZM96.7376 15.216C97.239 15.216 97.623 15.0827 97.8896 14.816C98.167 14.5387 98.3056 14.2133 98.3056 13.84C98.3056 13.4667 98.1723 13.1467 97.9056 12.88C97.639 12.6133 97.271 12.48 96.8016 12.48H94.5776V15.216H96.7376ZM96.9776 20.016C97.5216 20.016 97.9376 19.8827 98.2256 19.616C98.5136 19.3387 98.6576 18.9867 98.6576 18.56C98.6576 18.1333 98.5083 17.7813 98.2096 17.504C97.9216 17.216 97.4896 17.072 96.9136 17.072H94.5776V20.016H96.9776ZM109.648 20.112C109.285 20.752 108.795 21.2693 108.176 21.664C107.568 22.0587 106.821 22.256 105.936 22.256C105.339 22.256 104.784 22.1547 104.272 21.952C103.771 21.7387 103.333 21.4453 102.96 21.072C102.587 20.6987 102.293 20.2613 102.08 19.76C101.877 19.248 101.776 18.688 101.776 18.08C101.776 17.5147 101.877 16.9813 102.08 16.48C102.283 15.968 102.565 15.5253 102.928 15.152C103.291 14.768 103.717 14.464 104.208 14.24C104.709 14.016 105.259 13.904 105.856 13.904C106.485 13.904 107.045 14.0107 107.536 14.224C108.027 14.4267 108.437 14.7147 108.768 15.088C109.099 15.4507 109.349 15.8827 109.52 16.384C109.691 16.8853 109.776 17.4293 109.776 18.016C109.776 18.0907 109.776 18.1547 109.776 18.208C109.765 18.272 109.76 18.3307 109.76 18.384C109.749 18.4373 109.744 18.496 109.744 18.56H103.84C103.883 18.88 103.968 19.1573 104.096 19.392C104.235 19.616 104.4 19.808 104.592 19.968C104.795 20.1173 105.013 20.2293 105.248 20.304C105.483 20.368 105.723 20.4 105.968 20.4C106.448 20.4 106.843 20.2933 107.152 20.08C107.472 19.856 107.723 19.5787 107.904 19.248L109.648 20.112ZM107.744 17.072C107.733 16.9333 107.685 16.7787 107.6 16.608C107.525 16.4373 107.408 16.2773 107.248 16.128C107.099 15.9787 106.907 15.856 106.672 15.76C106.448 15.664 106.176 15.616 105.856 15.616C105.408 15.616 105.013 15.744 104.672 16C104.331 16.256 104.091 16.6133 103.952 17.072H107.744ZM118.617 20.112C118.254 20.752 117.764 21.2693 117.145 21.664C116.537 22.0587 115.79 22.256 114.905 22.256C114.308 22.256 113.753 22.1547 113.241 21.952C112.74 21.7387 112.302 21.4453 111.929 21.072C111.556 20.6987 111.262 20.2613 111.049 19.76C110.846 19.248 110.745 18.688 110.745 18.08C110.745 17.5147 110.846 16.9813 111.049 16.48C111.252 15.968 111.534 15.5253 111.897 15.152C112.26 14.768 112.686 14.464 113.177 14.24C113.678 14.016 114.228 13.904 114.825 13.904C115.454 13.904 116.014 14.0107 116.505 14.224C116.996 14.4267 117.406 14.7147 117.737 15.088C118.068 15.4507 118.318 15.8827 118.489 16.384C118.66 16.8853 118.745 17.4293 118.745 18.016C118.745 18.0907 118.745 18.1547 118.745 18.208C118.734 18.272 118.729 18.3307 118.729 18.384C118.718 18.4373 118.713 18.496 118.713 18.56H112.809C112.852 18.88 112.937 19.1573 113.065 19.392C113.204 19.616 113.369 19.808 113.561 19.968C113.764 20.1173 113.982 20.2293 114.217 20.304C114.452 20.368 114.692 20.4 114.937 20.4C115.417 20.4 115.812 20.2933 116.121 20.08C116.441 19.856 116.692 19.5787 116.873 19.248L118.617 20.112ZM116.713 17.072C116.702 16.9333 116.654 16.7787 116.569 16.608C116.494 16.4373 116.377 16.2773 116.217 16.128C116.068 15.9787 115.876 15.856 115.641 15.76C115.417 15.664 115.145 15.616 114.825 15.616C114.377 15.616 113.982 15.744 113.641 16C113.3 16.256 113.06 16.6133 112.921 17.072H116.713ZM133.559 20.16C132.993 20.8427 132.327 21.3653 131.559 21.728C130.791 22.08 129.932 22.256 128.983 22.256C128.129 22.256 127.335 22.1013 126.599 21.792C125.873 21.4827 125.244 21.0613 124.711 20.528C124.177 19.9947 123.756 19.3653 123.447 18.64C123.137 17.904 122.983 17.1147 122.983 16.272C122.983 15.4293 123.137 14.6453 123.447 13.92C123.756 13.184 124.177 12.5493 124.711 12.016C125.244 11.4827 125.873 11.0613 126.599 10.752C127.335 10.4427 128.129 10.288 128.983 10.288C129.9 10.288 130.705 10.448 131.399 10.768C132.103 11.088 132.727 11.552 133.271 12.16L131.751 13.632C131.409 13.2373 131.015 12.9227 130.567 12.688C130.129 12.4533 129.607 12.336 128.999 12.336C128.465 12.336 127.964 12.432 127.495 12.624C127.025 12.8053 126.615 13.0667 126.263 13.408C125.921 13.7493 125.649 14.1653 125.447 14.656C125.244 15.136 125.143 15.6747 125.143 16.272C125.143 16.8693 125.244 17.4133 125.447 17.904C125.649 18.384 125.921 18.7947 126.263 19.136C126.615 19.4773 127.025 19.744 127.495 19.936C127.964 20.1173 128.465 20.208 128.999 20.208C129.639 20.208 130.204 20.08 130.695 19.824C131.196 19.5573 131.639 19.184 132.023 18.704L133.559 20.16ZM134.88 22V10.544H136.976V22H134.88ZM146.117 20.112C145.754 20.752 145.264 21.2693 144.645 21.664C144.037 22.0587 143.29 22.256 142.405 22.256C141.808 22.256 141.253 22.1547 140.741 21.952C140.24 21.7387 139.802 21.4453 139.429 21.072C139.056 20.6987 138.762 20.2613 138.549 19.76C138.346 19.248 138.245 18.688 138.245 18.08C138.245 17.5147 138.346 16.9813 138.549 16.48C138.752 15.968 139.034 15.5253 139.397 15.152C139.76 14.768 140.186 14.464 140.677 14.24C141.178 14.016 141.728 13.904 142.325 13.904C142.954 13.904 143.514 14.0107 144.005 14.224C144.496 14.4267 144.906 14.7147 145.237 15.088C145.568 15.4507 145.818 15.8827 145.989 16.384C146.16 16.8853 146.245 17.4293 146.245 18.016C146.245 18.0907 146.245 18.1547 146.245 18.208C146.234 18.272 146.229 18.3307 146.229 18.384C146.218 18.4373 146.213 18.496 146.213 18.56H140.309C140.352 18.88 140.437 19.1573 140.565 19.392C140.704 19.616 140.869 19.808 141.061 19.968C141.264 20.1173 141.482 20.2293 141.717 20.304C141.952 20.368 142.192 20.4 142.437 20.4C142.917 20.4 143.312 20.2933 143.621 20.08C143.941 19.856 144.192 19.5787 144.373 19.248L146.117 20.112ZM144.213 17.072C144.202 16.9333 144.154 16.7787 144.069 16.608C143.994 16.4373 143.877 16.2773 143.717 16.128C143.568 15.9787 143.376 15.856 143.141 15.76C142.917 15.664 142.645 15.616 142.325 15.616C141.877 15.616 141.482 15.744 141.141 16C140.8 16.256 140.56 16.6133 140.421 17.072H144.213ZM152.494 21.168H152.366C152.12 21.4667 151.822 21.7227 151.47 21.936C151.128 22.1493 150.686 22.256 150.142 22.256C149.736 22.256 149.352 22.1867 148.99 22.048C148.638 21.92 148.328 21.7387 148.062 21.504C147.795 21.2693 147.587 20.9867 147.438 20.656C147.288 20.3253 147.214 19.9627 147.214 19.568C147.214 19.1627 147.294 18.8 147.454 18.48C147.614 18.1493 147.838 17.8667 148.126 17.632C148.414 17.3973 148.75 17.2213 149.134 17.104C149.528 16.976 149.955 16.912 150.414 16.912C150.926 16.912 151.347 16.9547 151.678 17.04C152.008 17.1147 152.28 17.1947 152.494 17.28V17.04C152.494 16.624 152.328 16.2827 151.998 16.016C151.667 15.7387 151.256 15.6 150.766 15.6C150.04 15.6 149.427 15.904 148.926 16.512L147.406 15.472C148.238 14.4267 149.374 13.904 150.814 13.904C152.03 13.904 152.958 14.192 153.598 14.768C154.238 15.3333 154.558 16.176 154.558 17.296V22H152.494V21.168ZM152.494 18.816C152.248 18.6987 151.992 18.608 151.726 18.544C151.47 18.4693 151.187 18.432 150.878 18.432C150.376 18.432 149.987 18.544 149.71 18.768C149.443 18.9813 149.31 19.248 149.31 19.568C149.31 19.888 149.438 20.144 149.694 20.336C149.96 20.528 150.264 20.624 150.606 20.624C150.883 20.624 151.139 20.576 151.374 20.48C151.608 20.3733 151.806 20.24 151.966 20.08C152.136 19.9093 152.264 19.7173 152.35 19.504C152.446 19.28 152.494 19.0507 152.494 18.816ZM158.192 15.184H158.32C158.565 14.7893 158.896 14.48 159.312 14.256C159.728 14.0213 160.203 13.904 160.736 13.904C161.227 13.904 161.659 13.984 162.032 14.144C162.405 14.304 162.709 14.5333 162.944 14.832C163.189 15.12 163.371 15.472 163.488 15.888C163.616 16.2933 163.68 16.7467 163.68 17.248V22H161.584V17.504C161.584 16.9387 161.456 16.5227 161.2 16.256C160.955 15.9787 160.592 15.84 160.112 15.84C159.824 15.84 159.568 15.904 159.344 16.032C159.131 16.1493 158.944 16.3147 158.784 16.528C158.635 16.7307 158.517 16.976 158.432 17.264C158.357 17.5413 158.32 17.84 158.32 18.16V22H156.224V14.16H158.192V15.184Z" fill="black"/>
</svg>
