<svg width="56" height="56" viewBox="0 0 56 56" fill="none" xmlns="http://www.w3.org/2000/svg">
<path fill-rule="evenodd" clip-rule="evenodd" d="M21.8279 22.1667V43.1667L24.5173 44.0631C27.3723 45.0148 30.3622 45.5 33.3717 45.5H41.7559C45.0927 45.5 47.9656 43.1448 48.62 39.8728L50.3681 31.1322C51.1263 27.3412 48.6678 23.6535 44.8769 22.8953C44.272 22.7743 43.6539 22.7338 43.0384 22.7749L34.6612 23.3333L35.511 13.9856C35.6708 12.2276 34.3752 10.6729 32.6173 10.5131C32.521 10.5044 32.4245 10.5 32.3279 10.5C30.1565 10.5 28.1443 11.6393 27.0271 13.5012L21.8279 22.1667Z" fill="#F7CE46"/>
<path d="M14.8278 19.8333H7.82784C6.53918 19.8333 5.49451 20.878 5.49451 22.1667V43.1667C5.49451 44.4553 6.53918 45.5 7.82784 45.5H14.8278C16.1165 45.5 17.1612 44.4553 17.1612 43.1667V22.1667C17.1612 20.878 16.1165 19.8333 14.8278 19.8333Z" fill="#F9DD7E"/>
</svg>
