<svg width="56" height="56" viewBox="0 0 56 56" fill="none" xmlns="http://www.w3.org/2000/svg">
<g clip-path="url(#clip0_419_1042)">
<path d="M24.1111 25.6667C18.9564 25.6667 14.7778 21.488 14.7778 16.3333C14.7778 11.1787 18.9564 7 24.1111 7C29.2658 7 33.4444 11.1787 33.4444 16.3333C33.4444 21.488 29.2658 25.6667 24.1111 25.6667Z" fill="#F7CE46"/>
<path d="M3.1126 47.1315C4.01702 35.9952 13.0555 30.3333 24.0722 30.3333C35.2439 30.3333 44.4225 35.6841 45.1062 47.1333C45.1335 47.5894 45.1062 49 43.3534 49C34.707 49 21.8588 49 4.80859 49C4.22341 49 3.06334 47.7381 3.1126 47.1315Z" fill="#F9DD7E"/>
<path fill-rule="evenodd" clip-rule="evenodd" d="M45.111 26.0208L41.6918 27.8993C41.2825 28.1242 40.7764 27.9597 40.5612 27.5321C40.4756 27.3618 40.446 27.1667 40.4771 26.9771L41.1301 22.9983L38.3639 20.1806C38.0328 19.8433 38.026 19.2894 38.3488 18.9435C38.4773 18.8057 38.6457 18.716 38.8279 18.6884L42.6507 18.1079L44.3603 14.4879C44.5649 14.0546 45.0669 13.8767 45.4815 14.0905C45.6466 14.1757 45.7803 14.3153 45.8617 14.4879L47.5714 18.1079L51.3942 18.6884C51.8517 18.7578 52.1688 19.2018 52.1023 19.6799C52.0758 19.8703 51.99 20.0463 51.8582 20.1806L49.0919 22.9983L49.7449 26.9771C49.8231 27.4533 49.5171 27.9056 49.0614 27.9872C48.8799 28.0198 48.6932 27.9889 48.5303 27.8993L45.111 26.0208Z" fill="#F7CE46"/>
</g>
<defs>
<clipPath id="clip0_419_1042">
<rect width="56" height="56" fill="white"/>
</clipPath>
</defs>
</svg>
