<svg width="56" height="56" viewBox="0 0 56 56" fill="none" xmlns="http://www.w3.org/2000/svg">
<path fill-rule="evenodd" clip-rule="evenodd" d="M10.0559 8.53623L27.1727 5.32683C27.7191 5.22439 28.2797 5.22439 28.8261 5.32683L45.9429 8.53623V29.3574C45.9429 35.9391 42.5523 42.0564 36.9711 45.5447L29.1882 50.4091C28.4608 50.8636 27.538 50.8636 26.8106 50.4091L19.0277 45.5447C13.4465 42.0564 10.0559 35.9391 10.0559 29.3574V8.53623Z" fill="#F7CE46"/>
<path fill-rule="evenodd" clip-rule="evenodd" d="M27.9997 14.5153C34.6063 14.5153 39.962 19.871 39.962 26.4776C39.962 33.0842 34.6063 38.4399 27.9997 38.4399C21.3931 38.4399 16.0374 33.0842 16.0374 26.4776C16.0374 19.871 21.3931 14.5153 27.9997 14.5153ZM21.0232 28.3374C22.8291 31.0462 25.1834 32.4588 27.9997 32.4588C30.816 32.4588 33.1703 31.0462 34.9762 28.3374C35.3426 27.7877 35.1941 27.045 34.6444 26.6785C34.0947 26.312 33.352 26.4606 32.9855 27.0103C31.6014 29.0864 29.9683 30.0663 27.9997 30.0663C26.0311 30.0663 24.3979 29.0864 23.0138 27.0103C22.6474 26.4606 21.9047 26.312 21.355 26.6785C20.8053 27.045 20.6567 27.7877 21.0232 28.3374Z" fill="#F9DD7E"/>
</svg>
