<svg width="56" height="56" viewBox="0 0 56 56" fill="none" xmlns="http://www.w3.org/2000/svg">
<g clip-path="url(#clip0_419_225)">
<path d="M28 24.8889C22.8453 24.8889 18.6666 20.7102 18.6666 15.5556C18.6666 10.4009 22.8453 6.22223 28 6.22223C33.1546 6.22223 37.3333 10.4009 37.3333 15.5556C37.3333 20.7102 33.1546 24.8889 28 24.8889Z" fill="#F7CE46"/>
<path d="M7.00152 44.0204C7.90594 32.8841 16.9445 27.2222 27.9611 27.2222C39.1328 27.2222 48.3114 32.573 48.9951 44.0222C49.0224 44.4783 48.9951 45.8889 47.2423 45.8889C38.596 45.8889 25.7477 45.8889 8.69751 45.8889C8.11233 45.8889 6.95226 44.627 7.00152 44.0204Z" fill="#F9DD7E"/>
<path fill-rule="evenodd" clip-rule="evenodd" d="M9.33332 51.6875L5.91407 53.566C5.50483 53.7908 4.99866 53.6264 4.78351 53.1987C4.69784 53.0284 4.66828 52.8334 4.6994 52.6438L5.35242 48.665L2.58618 45.8472C2.2551 45.51 2.24833 44.9561 2.57105 44.6101C2.69956 44.4723 2.86795 44.3827 3.05015 44.355L6.87299 43.7745L8.58261 40.1545C8.78723 39.7212 9.28921 39.5434 9.70381 39.7572C9.86891 39.8423 10.0025 39.982 10.084 40.1545L11.7936 43.7745L15.6165 44.355C16.074 44.4245 16.391 44.8684 16.3246 45.3466C16.2981 45.5369 16.2123 45.7129 16.0805 45.8472L13.3142 48.665L13.9672 52.6438C14.0454 53.12 13.7393 53.5722 13.2836 53.6539C13.1022 53.6864 12.9155 53.6555 12.7526 53.566L9.33332 51.6875Z" fill="#F7CE46"/>
<path fill-rule="evenodd" clip-rule="evenodd" d="M27.9999 51.6875L24.5807 53.566C24.1715 53.7908 23.6653 53.6264 23.4501 53.1987C23.3645 53.0284 23.3349 52.8334 23.366 52.6438L24.019 48.665L21.2528 45.8472C20.9217 45.51 20.915 44.9561 21.2377 44.6101C21.3662 44.4723 21.5346 44.3827 21.7168 44.355L25.5396 43.7745L27.2492 40.1545C27.4539 39.7212 27.9558 39.5434 28.3704 39.7572C28.5355 39.8423 28.6692 39.982 28.7507 40.1545L30.4603 43.7745L34.2831 44.355C34.7407 44.4245 35.0577 44.8684 34.9912 45.3466C34.9647 45.5369 34.8789 45.7129 34.7471 45.8472L31.9808 48.665L32.6339 52.6438C32.712 53.12 32.406 53.5722 31.9503 53.6539C31.7688 53.6864 31.5822 53.6555 31.4192 53.566L27.9999 51.6875Z" fill="#F7CE46"/>
<path fill-rule="evenodd" clip-rule="evenodd" d="M46.6666 51.6875L43.2473 53.566C42.8381 53.7908 42.3319 53.6264 42.1168 53.1987C42.0311 53.0284 42.0015 52.8334 42.0327 52.6438L42.6857 48.665L39.9194 45.8472C39.5884 45.51 39.5816 44.9561 39.9043 44.6101C40.0328 44.4723 40.2012 44.3827 40.3834 44.355L44.2062 43.7745L45.9159 40.1545C46.1205 39.7212 46.6225 39.5434 47.0371 39.7572C47.2022 39.8423 47.3358 39.982 47.4173 40.1545L49.1269 43.7745L52.9497 44.355C53.4073 44.4245 53.7243 44.8684 53.6578 45.3466C53.6313 45.5369 53.5455 45.7129 53.4137 45.8472L50.6475 48.665L51.3005 52.6438C51.3787 53.12 51.0726 53.5722 50.6169 53.6539C50.4354 53.6864 50.2488 53.6555 50.0858 53.566L46.6666 51.6875Z" fill="#F7CE46"/>
</g>
<defs>
<clipPath id="clip0_419_225">
<rect width="56" height="56" fill="white"/>
</clipPath>
</defs>
</svg>
