<svg width="56" height="56" viewBox="0 0 56 56" fill="none" xmlns="http://www.w3.org/2000/svg">
<g clip-path="url(#clip0_419_577)">
<path fill-rule="evenodd" clip-rule="evenodd" d="M19.7728 50.6999L28.0014 46.7174L36.23 50.6999L39.9736 42.3599L48.8369 40.1214L46.3439 31.3263L51.6947 23.9142L44.1315 18.7793L43.4661 9.66189L34.3717 10.5898L28.0014 4.0332L21.6311 10.5898L12.5367 9.66189L11.8713 18.7793L4.30811 23.9142L9.65893 31.3263L7.16587 40.1214L16.0292 42.3599L19.7728 50.6999ZM23.8097 33.7458C24.2569 34.1931 24.8159 34.4167 25.3749 34.4167C25.934 34.4167 26.493 34.1931 26.9402 33.7458L35.8847 24.8014C36.7791 23.9069 36.7791 22.5653 35.8847 21.6708C34.9902 20.7764 33.6486 20.7764 32.7541 21.6708L25.3749 29.05L22.468 26.1431C21.6854 25.2486 20.2319 25.2486 19.3374 26.1431C18.443 27.0375 18.443 28.3792 19.3374 29.2736L23.8097 33.7458Z" fill="#F7CE46"/>
</g>
<defs>
<clipPath id="clip0_419_577">
<rect width="56" height="56" fill="white"/>
</clipPath>
</defs>
</svg>
