<svg width="436" height="400" viewBox="0 0 436 400" fill="none" xmlns="http://www.w3.org/2000/svg">
<g clip-path="url(#clip0_353_1118)">
<g filter="url(#filter0_d_353_1118)">
<path d="M341.314 188.874L332.472 185.232H322.59L318.429 186.793L306.466 190.954L308.026 175.871L305.946 171.19L299.705 168.069L296.064 162.347L295.544 155.586L303.866 151.425L308.026 152.986L311.147 148.824L313.748 147.784H318.429L321.549 146.224L322.07 142.583L325.71 130.62L326.75 116.058L328.311 112.936L334.032 109.816L332.472 123.859L334.552 129.061L337.673 138.422L341.314 139.983L349.116 135.822L351.196 137.902L351.716 141.023L354.837 145.704L354.317 149.344L343.394 169.109L341.314 176.391V188.874Z" fill="#D5E3F8" stroke="white" stroke-width="3" stroke-linecap="round" stroke-linejoin="round"/>
<path d="M341.314 188.874L342.353 189.394L352.236 201.876L353.276 202.916L362.118 201.876L370.44 197.715L367.319 200.316L366.279 207.078L369.399 211.758L363.678 223.721L348.595 239.324L338.193 255.448L341.314 270.531L326.75 259.609L312.707 258.568L304.906 252.327L298.144 244.006L302.305 234.643L302.825 228.402L301.785 219.56L302.305 215.919L306.466 211.238L317.388 209.158L318.948 207.078L317.388 200.316L318.428 190.434V186.793L322.589 185.232H332.472L341.314 188.874Z" fill="#D5E3F8" stroke="white" stroke-width="3" stroke-linecap="round" stroke-linejoin="round"/>
<path d="M155.633 147.784L167.075 161.827L168.636 166.508L163.954 170.669L157.193 166.508L152.512 171.189L147.831 169.108L140.029 168.068H121.305L119.225 163.907L116.624 163.387L110.903 165.468L108.822 163.387L108.302 157.146L105.182 152.465L95.2993 149.344L97.3799 139.462L101.541 133.74L102.061 128.539L117.144 123.338L118.184 121.778L117.664 117.097L124.946 108.255L135.348 121.778L136.388 130.62L140.029 136.341L145.23 135.301L155.633 147.784Z" fill="#D5E3F8" stroke="white" stroke-width="3" stroke-linecap="round" stroke-linejoin="round"/>
<path d="M298.144 244.005L304.906 252.327L312.707 258.568L326.75 259.608L341.314 270.531L342.874 278.332L335.592 305.378L323.63 316.301L317.908 329.824L306.466 340.226L304.906 358.43L292.423 363.111L285.141 357.389L282.02 353.229L269.538 357.389L266.417 334.505L264.857 332.944L248.733 293.416L240.411 282.493L229.489 274.692L220.647 260.128L220.127 258.048L220.647 253.887L224.808 252.327L248.733 254.407L258.095 260.128L262.256 258.568L265.897 252.847L269.018 251.807L276.819 253.887L279.42 253.367V248.686L271.098 238.804L276.819 237.763L279.42 238.804L286.702 245.565L291.382 251.287L295.023 248.686L298.144 244.005Z" fill="#D5E3F8" stroke="white" stroke-width="3" stroke-linecap="round" stroke-linejoin="round"/>
<path d="M192.56 137.382L194.641 146.223L200.362 153.505L202.962 160.267V168.068L207.123 170.148L210.244 176.39L209.724 181.071L207.123 182.111L204.002 184.712L201.922 187.312L200.362 182.631L197.761 182.111L188.399 171.189L186.839 167.548L183.198 163.907L173.316 163.387L168.635 166.508L167.075 161.827L155.632 147.784L165.514 145.703L171.235 138.422L176.957 135.821L183.718 135.301L192.56 137.382Z" fill="#D5E3F8" stroke="white" stroke-width="3" stroke-linecap="round" stroke-linejoin="round"/>
<path d="M220.126 258.049L220.646 260.129L229.488 274.693L240.41 282.494L248.732 293.417L264.856 332.945L258.094 325.663L244.571 324.623L234.689 337.106L225.327 336.066L215.965 340.227L207.123 355.31L194.12 357.911L182.678 346.988L176.436 333.465L187.359 332.945L189.439 330.865V320.462L191.52 316.302L195.16 313.701L200.362 314.741L202.962 310.58L202.442 301.218L198.801 287.695L192.56 279.373L198.801 274.693V272.092L194.64 262.73L203.482 256.489L206.603 255.448L220.126 258.049Z" fill="#D5E3F8" stroke="white" stroke-width="3" stroke-linecap="round" stroke-linejoin="round"/>
<path d="M140.029 168.068L140.549 181.071L138.469 188.873L135.868 193.553L129.627 195.114L122.865 191.993L113.503 193.553L107.782 197.715L88.5376 195.114L75.5348 198.755L62.0119 194.074L72.4142 177.95L72.9342 173.789L69.2934 170.148L58.8911 169.108L54.7302 164.947L55.7705 162.867L61.4916 161.307L74.4945 150.384L95.2991 149.344L105.181 152.465L108.302 157.145L108.822 163.387L110.902 165.468L116.624 163.387L119.224 163.907L121.305 168.068H140.029Z" fill="#D5E3F8" stroke="white" stroke-width="3" stroke-linecap="round" stroke-linejoin="round"/>
<path d="M252.373 46.8823L254.454 55.724L251.853 68.7268L257.054 71.3274L251.333 80.6897L249.253 92.132L243.531 98.3737L243.011 107.735L193.08 102.534L198.282 86.4108L175.396 67.6869V51.5634L179.037 47.9223L184.238 37L252.373 46.8823Z" fill="#D5E3F8" stroke="white" stroke-width="3" stroke-linecap="round" stroke-linejoin="round"/>
<path d="M298.143 244.004L295.022 248.685L291.381 251.286L286.701 245.564L279.419 238.803L276.818 237.763L271.097 238.803L269.537 230.481L265.376 226.84L264.856 223.72L265.376 216.958L257.054 214.878L253.933 217.479L251.333 212.797L250.813 208.116L245.611 204.476L245.091 202.395L246.652 198.234L249.252 202.915L252.373 204.996L256.014 205.516L259.655 202.915L260.695 199.795V190.432L262.255 188.872L267.976 186.792L282.019 196.153L293.982 195.113L306.465 190.952L318.427 186.792V190.432L317.387 200.315L318.947 207.076L317.387 209.156L306.465 211.237L302.304 215.918L301.784 219.559L302.824 228.401L302.304 234.642L298.143 244.004Z" fill="#D5E3F8" stroke="white" stroke-width="3" stroke-linecap="round" stroke-linejoin="round"/>
<path d="M152.511 171.189L150.951 173.27L149.91 177.43L150.951 180.031L155.632 183.151L156.152 190.953L158.752 196.675L172.795 211.237L168.635 213.318L159.273 215.399L153.031 212.798L151.991 210.717L145.229 201.876L140.028 199.275L138.468 195.634L135.867 193.553L138.468 188.873L140.548 181.071L140.028 168.068L147.83 169.108L152.511 171.189Z" fill="#D5E3F8" stroke="white" stroke-width="3" stroke-linecap="round" stroke-linejoin="round"/>
<path d="M135.868 193.553L138.469 195.634L140.029 199.275L134.828 200.835L128.586 208.637L122.865 210.197L103.101 211.237L96.8594 217.479L100.5 224.76L76.5748 228.921L70.8537 234.122L69.8134 237.243L72.934 239.843H79.6954V241.924L74.4943 245.565L70.3334 251.286L66.1726 258.567L58.3708 249.206L42.2474 245.045L38.0863 238.803L37.5663 226.321L39.6469 227.361H45.368L49.0089 223.72L49.5288 216.958L51.0891 213.838L55.7703 208.117L62.0117 194.074L75.5345 198.754L88.5374 195.114L107.782 197.714L113.503 193.553L122.865 191.993L129.627 195.114L135.868 193.553Z" fill="#D5E3F8" stroke="white" stroke-width="3" stroke-linecap="round" stroke-linejoin="round"/>
<path d="M211.285 141.022L216.486 145.183L218.046 149.864L222.207 150.904L222.727 153.504L214.925 164.947L214.405 167.547L209.204 168.588L207.123 170.148L202.963 168.068V160.266L200.362 153.504L194.641 146.223L192.56 137.381L194.121 136.34L200.882 132.18L204.523 133.22L207.123 137.381L211.285 141.022Z" fill="#D5E3F8" stroke="white" stroke-width="3" stroke-linecap="round" stroke-linejoin="round"/>
<path d="M186.84 202.396L180.078 207.077L172.797 211.237L158.754 196.674L156.153 190.953L155.633 183.151L150.952 180.03L149.911 177.43L150.952 173.269L152.512 171.189L159.794 172.749L162.914 180.03L167.076 182.631L171.236 188.352L173.317 193.553L177.998 196.154L183.199 194.074L186.84 202.396Z" fill="#D5E3F8" stroke="white" stroke-width="3" stroke-linecap="round" stroke-linejoin="round"/>
<path d="M192.56 254.927L189.959 261.169L194.64 262.729L198.801 272.091V274.692L192.56 279.373L189.959 281.973L187.359 281.453L181.637 278.333L174.876 279.373L172.275 281.453L160.313 283.534L157.192 281.973L151.991 286.134L149.91 285.614L145.749 280.933L140.548 269.491L137.948 253.887V248.166L135.867 243.485L164.474 240.364L167.074 241.925L170.715 248.166L181.117 254.407L192.56 254.927Z" fill="#D5E3F8" stroke="white" stroke-width="3" stroke-linecap="round" stroke-linejoin="round"/>
<path d="M332.471 94.732L333.511 98.3732L334.031 109.815L328.31 112.936L326.749 116.057L325.709 130.62L322.068 142.583L321.548 146.223L318.427 147.784H313.746L311.146 148.824L308.025 152.985L303.864 151.425L295.542 155.586L294.502 148.304L292.942 145.183L288.781 143.623L285.14 138.942L279.939 139.462L276.818 144.143L270.057 145.703L270.577 132.181L268.497 120.738V110.335L270.577 102.014L267.456 95.2526L267.976 90.5715L272.137 87.4509L273.698 91.6115L300.223 107.735L305.945 106.695L314.267 96.2926L332.471 94.732Z" fill="#D5E3F8" stroke="white" stroke-width="3" stroke-linecap="round" stroke-linejoin="round"/>
<path d="M151.991 210.717L147.831 218.519L146.27 220.08H137.948L136.388 221.64L135.348 227.881L136.388 231.522L135.348 238.804L135.868 243.485L131.707 242.964L125.466 248.165L117.144 250.246L110.902 245.565L106.741 247.645V250.766L108.822 257.008L109.342 264.809L107.782 276.252L105.181 281.973L102.581 275.212L91.138 270.531H83.8566L83.3363 269.491L71.3737 259.088L66.1726 258.568L70.3335 251.287L74.4943 245.565L79.6954 241.924V239.844H72.934L69.8135 237.243L70.8538 234.123L76.5749 228.921L100.5 224.76L96.8595 217.479L103.101 211.237L122.865 210.197L128.586 208.637L134.828 200.835L140.029 199.275L145.23 201.876L151.991 210.717Z" fill="#D5E3F8" stroke="white" stroke-width="3" stroke-linecap="round" stroke-linejoin="round"/>
<path d="M192.561 279.372L198.802 287.695L202.443 301.217L202.963 310.579L200.363 314.74L195.162 313.7L191.521 316.301L189.44 320.461V330.864L187.36 332.944L176.438 333.464L169.156 317.861L163.955 317.341L148.351 326.703L149.392 306.939L136.909 290.295L139.509 286.654L145.751 280.933L149.912 285.614L151.992 286.134L157.193 281.973L160.314 283.533L172.277 281.453L174.877 279.372L181.639 278.332L187.36 281.453L189.96 281.973L192.561 279.372Z" fill="#D5E3F8" stroke="white" stroke-width="3" stroke-linecap="round" stroke-linejoin="round"/>
<path d="M267.977 186.793L262.256 188.874L260.695 190.434V199.796L259.655 202.917L256.014 205.517L252.373 204.997L249.253 202.917L246.652 198.236L246.132 192.514L239.37 190.954L233.649 188.353L224.807 182.632V180.552L222.207 176.391L223.767 173.27L224.287 168.589L231.049 163.908L239.37 163.388L244.052 161.308L247.172 157.667L252.373 154.026L253.414 161.828L260.175 177.951L265.376 182.112L267.977 186.793Z" fill="#D5E3F8" stroke="white" stroke-width="3" stroke-linecap="round" stroke-linejoin="round"/>
<path d="M272.138 87.4509L267.977 90.5715L267.457 95.2527L270.578 102.014L268.497 110.335V120.738L270.578 132.181L270.058 145.703L252.894 147.264L247.693 141.542L246.132 141.022L239.371 141.542L234.17 136.862L231.569 130.1L234.69 122.298L239.891 112.936L243.012 107.735L243.532 98.3732L249.253 92.1315L251.333 80.6892L257.055 71.3269L269.017 79.1286L272.138 87.4509Z" fill="#D5E3F8" stroke="white" stroke-width="3" stroke-linecap="round" stroke-linejoin="round"/>
<path d="M192.56 254.928L181.118 254.408L170.716 248.166L167.075 241.925L164.474 240.364L135.868 243.486L135.348 238.804L136.388 231.523L135.348 227.882L136.388 221.64L137.948 220.081H146.27L147.831 218.52L151.992 210.718L153.032 212.799L159.273 215.399L168.635 213.319L172.796 211.238L180.078 207.078L186.839 202.397L194.121 195.635L197.242 208.118L195.161 212.799L187.359 220.6L186.839 224.241L188.92 230.483L191.52 234.123L192.56 254.928Z" fill="#D5E3F8" stroke="white" stroke-width="3" stroke-linecap="round" stroke-linejoin="round"/>
<path d="M201.923 187.312L194.121 195.634L186.84 202.396L183.199 194.074L177.998 196.154L173.317 193.553L171.237 188.352L167.076 182.631L162.914 180.03L159.794 172.749L152.512 171.189L157.193 166.508L163.955 170.669L168.636 166.508L173.317 163.387L183.199 163.907L186.84 167.547L188.4 171.189L197.762 182.111L200.363 182.631L201.923 187.312Z" fill="#D5E3F8" stroke="white" stroke-width="3" stroke-linecap="round" stroke-linejoin="round"/>
<path d="M417.769 142.582L426.091 157.145L398.005 167.547L394.364 175.869L381.881 173.269L379.281 189.912L370.439 197.714L362.117 201.875L353.275 202.915L352.235 201.875L342.352 189.392L341.312 188.872V176.389L343.393 169.108L354.315 149.343L354.835 145.702L351.715 141.021L351.194 137.901L349.114 135.82L341.312 139.981L337.672 138.421L334.551 129.059L332.47 123.858L334.031 109.814L333.511 98.3722L332.47 94.7311L350.154 93.1711L373.559 85.3694L381.881 86.9293L383.442 95.2517L393.324 113.976L400.085 121.777L412.048 125.938L416.209 138.941L417.769 142.582Z" fill="#D5E3F8" stroke="white" stroke-width="3" stroke-linecap="round" stroke-linejoin="round"/>
<path d="M58.3705 96.8125L63.5717 119.698L65.6523 126.979L73.974 146.223L74.4939 150.385L61.4911 161.307L55.77 162.867L54.7297 164.947L58.8905 169.108L69.2928 170.148L72.9337 173.79L72.4137 177.95L62.0114 194.074L55.77 208.117L51.0888 213.838L49.5285 216.959L49.0086 223.72L45.3677 227.361H39.6466L37.566 226.321L21.4426 222.16L10 207.077L16.2414 193.554L22.4825 148.824L11.5603 116.057L15.2011 110.856L17.8017 95.7725L23.5228 94.7319L28.724 99.9331L42.2471 96.2925L58.3705 96.8125Z" fill="#D5E3F8" stroke="white" stroke-width="3" stroke-linecap="round" stroke-linejoin="round"/>
<path d="M135.867 243.485L137.948 248.165V253.887L140.548 269.491L145.749 280.933L139.508 286.654L136.907 290.295L123.905 300.177L111.422 326.183L102.06 329.824L101.02 311.62L109.341 292.896L105.181 281.973L107.781 276.252L109.341 264.81L108.821 257.008L106.741 250.766V247.646L110.902 245.565L117.143 250.246L125.465 248.165L131.706 242.964L135.867 243.485Z" fill="#D5E3F8" stroke="white" stroke-width="3" stroke-linecap="round" stroke-linejoin="round"/>
<path d="M252.893 147.264L252.373 154.025L247.171 157.666L244.051 161.306L239.37 163.387L231.048 163.907L224.287 168.588L223.766 173.269L222.206 176.39L219.606 170.148L214.404 167.548L214.924 164.947L222.726 153.505L222.206 150.904L218.045 149.864L216.485 145.183L211.284 141.022L211.804 134.261L215.445 131.14L231.568 130.1L234.169 136.861L239.37 141.542L246.131 141.022L247.692 141.542L252.893 147.264Z" fill="#D5E3F8" stroke="white" stroke-width="3" stroke-linecap="round" stroke-linejoin="round"/>
<path d="M243.012 107.735L239.891 112.936L234.69 122.298L231.569 130.1L215.446 131.14L211.805 134.261L211.285 141.022L207.124 137.381L204.523 133.22L200.882 132.18L194.121 136.341L192.56 137.381L183.718 135.301L176.957 135.821L178.517 126.459L184.239 122.298L185.279 119.177L183.718 110.856L185.799 108.255L187.88 111.896L190.48 111.376L193.081 102.533L243.012 107.735Z" fill="#D5E3F8" stroke="white" stroke-width="3" stroke-linecap="round" stroke-linejoin="round"/>
<path d="M124.945 108.255L117.664 117.097L118.184 121.778L117.144 123.338L102.06 128.539L101.54 133.74L97.3793 139.462L95.2987 149.344L74.4941 150.384L73.9741 146.223L65.6525 126.979L63.5719 119.697L58.3707 96.8124L71.3736 97.3323L97.8993 81.2089L111.422 78.0884L111.942 85.3701L124.945 108.255Z" fill="#D5E3F8" stroke="white" stroke-width="3" stroke-linecap="round" stroke-linejoin="round"/>
<path d="M220.646 253.887L220.126 258.048L206.603 255.447L203.482 256.488L194.64 262.729L189.959 261.168L192.56 254.927L191.519 234.123L188.919 230.482L186.839 224.24L187.359 220.6L195.16 212.798L197.241 208.117L194.12 195.634L201.922 187.312L204.002 184.712L207.123 187.832L208.683 190.953L208.163 195.114L209.723 204.477L218.045 220.08L217.525 223.2L212.844 230.482L212.324 234.643L215.965 244.005L220.646 253.887Z" fill="#D5E3F8" stroke="white" stroke-width="3" stroke-linecap="round" stroke-linejoin="round"/>
<path d="M246.652 198.235L245.092 202.396L245.612 204.476L250.813 208.117L251.333 212.798L253.934 217.479L257.055 214.879L265.376 216.959L264.856 223.72L265.376 226.841L269.537 230.482L271.098 238.804L279.419 248.686V253.367L276.819 253.887L269.017 251.807L265.897 252.847L262.256 258.568L258.095 260.128L248.732 254.407L224.807 252.327L225.327 249.726L229.489 244.525L232.089 236.203L237.29 234.643L239.371 232.562L240.931 228.401L237.81 222.68L236.25 217.479V212.798L234.169 206.036L234.69 203.436L243.531 197.715L246.652 198.235Z" fill="#D5E3F8" stroke="white" stroke-width="3" stroke-linecap="round" stroke-linejoin="round"/>
<path d="M295.543 155.585L296.063 162.347L299.704 168.068L305.945 171.189L308.026 175.87L306.466 190.953L293.983 195.114L282.02 196.154L267.977 186.792L265.377 182.111L260.175 177.95L253.414 161.827L252.374 154.025L252.894 147.264L270.058 145.703L276.819 144.143L279.94 139.462L285.141 138.941L288.782 143.623L292.942 145.183L294.503 148.304L295.543 155.585Z" fill="#D5E3F8" stroke="white" stroke-width="3" stroke-linecap="round" stroke-linejoin="round"/>
<path d="M224.807 182.632L233.649 188.353L239.37 190.954L246.132 192.514L246.652 198.235L243.531 197.715L234.69 203.436L234.169 206.037L236.25 212.799V217.48L237.81 222.681L240.931 228.402L239.37 232.563L237.29 234.643L232.089 236.204L229.489 244.526L225.327 249.727L224.807 252.327L220.647 253.888L215.965 244.006L212.325 234.643L212.845 230.483L217.526 223.201L218.046 220.08L209.724 204.477L208.164 195.115L208.684 190.954L207.123 187.833L204.003 184.712L207.123 182.112L209.724 181.072L215.965 180.031L224.807 182.632Z" fill="#D5E3F8" stroke="white" stroke-width="3" stroke-linecap="round" stroke-linejoin="round"/>
<path d="M222.207 176.39L224.808 180.551V182.631L215.966 180.031L209.725 181.071L210.245 176.39L207.124 170.148L209.205 168.588L214.406 167.548L219.607 170.148L222.207 176.39Z" fill="#D5E3F8" stroke="white" stroke-width="3" stroke-linecap="round" stroke-linejoin="round"/>
<path d="M175.396 51.5626V67.686L198.281 86.41L193.08 102.533L190.48 111.376L187.879 111.896L185.798 108.255L183.718 110.856L185.278 119.177L184.238 122.298L178.517 126.459L176.956 135.821L171.235 138.421L165.514 145.703L155.632 147.784L145.23 135.301L140.029 136.341L136.388 130.62L135.347 121.778L124.945 108.255L111.942 85.37L111.422 78.0883L131.187 73.4071L135.347 54.6831L138.988 50.522L143.669 53.6432L149.391 65.0854L157.712 58.8443L171.755 55.2031L175.396 51.5626Z" fill="#D5E3F8" stroke="white" stroke-width="3" stroke-linecap="round" stroke-linejoin="round"/>
</g>
</g>
<defs>
<filter id="filter0_d_353_1118" x="-21.5" y="9.5" width="479.091" height="389.111" filterUnits="userSpaceOnUse" color-interpolation-filters="sRGB">
<feFlood flood-opacity="0" result="BackgroundImageFix"/>
<feColorMatrix in="SourceAlpha" type="matrix" values="0 0 0 0 0 0 0 0 0 0 0 0 0 0 0 0 0 0 127 0" result="hardAlpha"/>
<feOffset dy="4"/>
<feGaussianBlur stdDeviation="15"/>
<feComposite in2="hardAlpha" operator="out"/>
<feColorMatrix type="matrix" values="0 0 0 0 0 0 0 0 0 0 0 0 0 0 0 0 0 0 0.1 0"/>
<feBlend mode="normal" in2="BackgroundImageFix" result="effect1_dropShadow_353_1118"/>
<feBlend mode="normal" in="SourceGraphic" in2="effect1_dropShadow_353_1118" result="shape"/>
</filter>
<clipPath id="clip0_353_1118">
<rect width="436" height="400" fill="white"/>
</clipPath>
</defs>
</svg>
