<svg width="252" height="32" viewBox="0 0 252 32" fill="none" xmlns="http://www.w3.org/2000/svg">
<rect width="252" height="32" rx="4" fill="white"/>
<g clip-path="url(#clip0_372_1098)">
<path d="M29.2569 12.5051H38.9583V14.3463H35.1385V24.7251H33.0448V14.3463H29.241L29.2569 12.5051ZM38.5427 15.8778H40.3328V17.5886H40.3647C40.4287 17.3442 40.5405 17.1161 40.7004 16.888C40.8602 16.6599 41.052 16.4481 41.2917 16.2689C41.5155 16.0734 41.7712 15.9267 42.0589 15.8127C42.3306 15.6986 42.6182 15.6334 42.9059 15.6334C43.1297 15.6334 43.2895 15.6497 43.3694 15.6497C43.4493 15.666 43.5452 15.6823 43.6251 15.6823V17.556C43.4973 17.5235 43.3534 17.5072 43.2096 17.4909C43.0657 17.4746 42.9379 17.4583 42.794 17.4583C42.4744 17.4583 42.1707 17.5235 41.8831 17.6538C41.5954 17.7841 41.3556 17.9797 41.1319 18.2241C40.9241 18.4848 40.7483 18.7943 40.6204 19.1691C40.4926 19.5438 40.4287 19.9837 40.4287 20.4725V24.6762H38.5108L38.5427 15.8778ZM52.4155 24.7251H50.5295V23.4868H50.4976C50.2578 23.943 49.9062 24.2852 49.4427 24.5622C48.9792 24.8391 48.4998 24.9695 48.0203 24.9695C46.8855 24.9695 46.0545 24.6925 45.543 24.1059C45.0316 23.5357 44.7759 22.6558 44.7759 21.499V15.8778H46.6938V21.3035C46.6938 22.0856 46.8376 22.6395 47.1413 22.9491C47.4289 23.275 47.8445 23.4379 48.3719 23.4379C48.7715 23.4379 49.1071 23.3727 49.3788 23.2424C49.6505 23.1121 49.8743 22.9491 50.0341 22.7373C50.2099 22.5255 50.3218 22.2648 50.4017 21.9715C50.4816 21.6782 50.5136 21.3524 50.5136 21.0102V15.8778H52.4314V24.7251H52.4155ZM55.6759 21.8901C55.7398 22.4603 55.9476 22.8514 56.3152 23.0958C56.6828 23.3239 57.1303 23.4379 57.6417 23.4379C57.8175 23.4379 58.0253 23.4216 58.249 23.389C58.4728 23.3564 58.6965 23.3076 58.8883 23.2261C59.0961 23.1446 59.2559 23.0306 59.3838 22.8676C59.5117 22.7047 59.5756 22.5092 59.5596 22.2648C59.5436 22.0204 59.4637 21.8086 59.2879 21.6457C59.1121 21.4827 58.9043 21.3687 58.6486 21.2546C58.3929 21.1569 58.0892 21.0754 57.7536 21.0102C57.418 20.945 57.0823 20.8636 56.7307 20.7821C56.3791 20.7006 56.0275 20.6029 55.6919 20.4888C55.3562 20.3748 55.0685 20.2281 54.7968 20.0163C54.5411 19.8208 54.3174 19.5764 54.1735 19.2668C54.0137 18.9573 53.9338 18.5988 53.9338 18.1426C53.9338 17.6538 54.0457 17.2628 54.2854 16.9369C54.5092 16.611 54.8128 16.3503 55.1644 16.1548C55.516 15.9593 55.9156 15.8127 56.3471 15.7312C56.7787 15.6497 57.1942 15.6171 57.5778 15.6171C58.0253 15.6171 58.4568 15.666 58.8564 15.7638C59.2559 15.8615 59.6395 16.0082 59.9592 16.2363C60.2948 16.4481 60.5665 16.7414 60.7743 17.0835C60.998 17.4257 61.1259 17.8493 61.1898 18.3381H59.192C59.0961 17.8656 58.8883 17.556 58.5687 17.3931C58.2331 17.2302 57.8655 17.1487 57.4339 17.1487C57.3061 17.1487 57.1303 17.165 56.9545 17.1813C56.7627 17.2139 56.6029 17.2465 56.427 17.3116C56.2672 17.3768 56.1234 17.4746 56.0115 17.5886C55.8996 17.7027 55.8357 17.8656 55.8357 18.0611C55.8357 18.3055 55.9156 18.4848 56.0754 18.6314C56.2353 18.778 56.443 18.8921 56.7147 19.0061C56.9704 19.1039 57.2741 19.1854 57.6097 19.2505C57.9454 19.3157 58.297 19.3972 58.6486 19.4786C59.0002 19.5601 59.3358 19.6579 59.6715 19.7719C60.0071 19.886 60.3108 20.0326 60.5665 20.2444C60.8222 20.44 61.046 20.6844 61.2058 20.9776C61.3656 21.2709 61.4455 21.6457 61.4455 22.0693C61.4455 22.5907 61.3336 23.0306 61.0939 23.4053C60.8542 23.7638 60.5505 24.0734 60.1829 24.3015C59.8153 24.5296 59.3838 24.6925 58.9363 24.8066C58.4728 24.9043 58.0253 24.9695 57.5778 24.9695C57.0344 24.9695 56.5229 24.9043 56.0594 24.774C55.596 24.6436 55.1804 24.4481 54.8448 24.2037C54.5092 23.943 54.2375 23.6334 54.0457 23.2424C53.8539 22.8677 53.742 22.4114 53.726 21.8738H55.6599V21.8901H55.6759ZM61.9889 15.8778H63.4433V13.2057H65.3612V15.8615H67.0873V17.3116H65.3612V22.0367C65.3612 22.2485 65.3772 22.4114 65.3932 22.5744C65.4092 22.721 65.4571 22.8514 65.5051 22.9491C65.569 23.0469 65.6649 23.1283 65.7768 23.1772C65.9046 23.2261 66.0644 23.2587 66.2882 23.2587C66.416 23.2587 66.5599 23.2587 66.6877 23.2424C66.8156 23.2261 66.9594 23.2098 67.0873 23.1772V24.6925C66.8795 24.7251 66.6718 24.7414 66.464 24.7577C66.2562 24.7903 66.0644 24.7903 65.8407 24.7903C65.3292 24.7903 64.9297 24.7414 64.626 24.6436C64.3224 24.5459 64.0826 24.3992 63.9068 24.22C63.731 24.0245 63.6191 23.7964 63.5552 23.5194C63.4913 23.2424 63.4593 22.9002 63.4433 22.5418V17.3279H61.9889V15.8452V15.8778ZM68.4298 15.8778H70.2358V17.0835H70.2678C70.5395 16.5621 70.9071 16.2037 71.3866 15.9756C71.866 15.7475 72.3775 15.6334 72.9529 15.6334C73.6401 15.6334 74.2314 15.7475 74.7429 16.0082C75.2543 16.2526 75.6699 16.5784 76.0055 17.0184C76.3411 17.442 76.5968 17.9471 76.7567 18.5173C76.9165 19.0876 77.0124 19.7068 77.0124 20.3422C77.0124 20.945 76.9325 21.5153 76.7886 22.0693C76.6288 22.6233 76.4051 23.1283 76.1014 23.552C75.7977 23.9756 75.4141 24.3177 74.9347 24.5784C74.4552 24.8391 73.9118 24.9695 73.2725 24.9695C73.0008 24.9695 72.7131 24.9369 72.4414 24.888C72.1697 24.8391 71.898 24.7577 71.6423 24.6436C71.3866 24.5296 71.1468 24.3829 70.9391 24.2037C70.7153 24.0245 70.5395 23.8127 70.3957 23.5846H70.3637V28H68.4458V15.8778H68.4298ZM75.1265 20.3096C75.1265 19.9186 75.0785 19.5275 74.9666 19.1528C74.8707 18.778 74.7109 18.4522 74.5031 18.1589C74.2954 17.8656 74.0397 17.6375 73.752 17.4583C73.4483 17.2791 73.0967 17.1976 72.7131 17.1976C71.914 17.1976 71.3067 17.4746 70.8911 18.0448C70.4916 18.6151 70.2838 19.3809 70.2838 20.3259C70.2838 20.7821 70.3317 21.1894 70.4436 21.5642C70.5555 21.9389 70.6993 22.2648 70.9231 22.5418C71.1309 22.8188 71.3866 23.0306 71.6902 23.1935C71.9939 23.3564 72.3295 23.4379 72.7291 23.4379C73.1766 23.4379 73.5282 23.3402 73.8319 23.1609C74.1356 22.9817 74.3753 22.7373 74.5831 22.4603C74.7748 22.167 74.9187 21.8412 74.9986 21.4664C75.0785 21.0754 75.1265 20.7006 75.1265 20.3096ZM78.4987 12.5051H80.4166V14.3463H78.4987V12.5051ZM78.4987 15.8778H80.4166V24.7251H78.4987V15.8778ZM82.1268 12.5051H84.0446V24.7251H82.1268V12.5051ZM89.8942 24.9695C89.207 24.9695 88.5836 24.8554 88.0402 24.611C87.4968 24.3666 87.0493 24.0571 86.6658 23.6497C86.2982 23.2424 86.0105 22.7373 85.8187 22.167C85.6269 21.5968 85.515 20.9613 85.515 20.2933C85.515 19.6253 85.6109 19.0061 85.8187 18.4359C86.0105 17.8656 86.2982 17.3768 86.6658 16.9532C87.0334 16.5459 87.4968 16.22 88.0402 15.9919C88.5836 15.7638 89.207 15.6334 89.8942 15.6334C90.5814 15.6334 91.2048 15.7475 91.7482 15.9919C92.2916 16.22 92.7391 16.5459 93.1227 16.9532C93.4902 17.3605 93.7779 17.8656 93.9697 18.4359C94.1615 19.0061 94.2734 19.6253 94.2734 20.2933C94.2734 20.9776 94.1775 21.5968 93.9697 22.167C93.7619 22.7373 93.4902 23.2261 93.1227 23.6497C92.7551 24.0571 92.2916 24.3829 91.7482 24.611C91.2048 24.8391 90.5974 24.9695 89.8942 24.9695ZM89.8942 23.4216C90.3097 23.4216 90.6933 23.3239 90.997 23.1446C91.3166 22.9654 91.5564 22.721 91.7641 22.4277C91.9719 22.1345 92.1158 21.7923 92.2117 21.4338C92.3075 21.0591 92.3555 20.6844 92.3555 20.2933C92.3555 19.9186 92.3075 19.5438 92.2117 19.1691C92.1158 18.7943 91.9719 18.4685 91.7641 18.1752C91.5564 17.8819 91.3007 17.6538 90.997 17.4746C90.6773 17.2954 90.3097 17.1976 89.8942 17.1976C89.4787 17.1976 89.0951 17.2954 88.7914 17.4746C88.4718 17.6538 88.232 17.8982 88.0243 18.1752C87.8165 18.4685 87.6726 18.7943 87.5768 19.1691C87.4809 19.5438 87.4329 19.9186 87.4329 20.2933C87.4329 20.6844 87.4809 21.0591 87.5768 21.4338C87.6726 21.8086 87.8165 22.1345 88.0243 22.4277C88.232 22.721 88.4878 22.9654 88.7914 23.1446C89.1111 23.3402 89.4787 23.4216 89.8942 23.4216ZM94.8487 15.8778H96.3032V13.2057H98.221V15.8615H99.9471V17.3116H98.221V22.0367C98.221 22.2485 98.237 22.4114 98.253 22.5744C98.269 22.721 98.3169 22.8514 98.3649 22.9491C98.4288 23.0469 98.5247 23.1283 98.6366 23.1772C98.7644 23.2261 98.9243 23.2587 99.148 23.2587C99.2759 23.2587 99.4197 23.2587 99.5476 23.2424C99.6754 23.2261 99.8193 23.2098 99.9471 23.1772V24.6925C99.7394 24.7251 99.5316 24.7414 99.3238 24.7577C99.1161 24.7903 98.9243 24.7903 98.7005 24.7903C98.1891 24.7903 97.7895 24.7414 97.4858 24.6436C97.1822 24.5459 96.9424 24.3992 96.7666 24.22C96.5908 24.0245 96.479 23.7964 96.415 23.5194C96.3511 23.2424 96.3191 22.9002 96.3032 22.5418V17.3279H94.8487V15.8452V15.8778Z" fill="black"/>
<path d="M27.0195 12.5051H18.2451L15.5441 4L12.8271 12.5051L4.05273 12.4888L11.1489 17.7515L8.43191 26.2566L15.5281 20.9939L22.6243 26.2566L19.9233 17.7515L27.0195 12.5051Z" fill="#00B67A"/>
<path d="M20.5305 19.6741L19.9232 17.7515L15.544 20.9938L20.5305 19.6741Z" fill="#005128"/>
</g>
<g clip-path="url(#clip1_372_1098)">
<path d="M120 4.00635H144V27.9936H120V4.00635ZM146 4.00635H170V27.9936H146V4.00635ZM172 4.00635H196V27.9936H172V4.00635ZM198 4.00635H222V27.9936H198V4.00635ZM224 4.00635H248V27.9936H224V4.00635Z" fill="#00B67A"/>
<path d="M132 20.1727L135.65 19.2482L137.175 23.9457L132 20.1727ZM140.4 14.101H133.975L132 8.0542L130.025 14.101H123.6L128.8 17.849L126.825 23.8958L132.025 20.1477L135.225 17.849L140.4 14.101ZM158 20.1727L161.65 19.2482L163.175 23.9457L158 20.1727ZM166.4 14.101H159.975L158 8.0542L156.025 14.101H149.6L154.8 17.849L152.825 23.8958L158.025 20.1477L161.225 17.849L166.4 14.101ZM184 20.1727L187.65 19.2482L189.175 23.9457L184 20.1727ZM192.4 14.101H185.975L184 8.0542L182.025 14.101H175.6L180.8 17.849L178.825 23.8958L184.025 20.1477L187.225 17.849L192.4 14.101ZM210 20.1727L213.65 19.2482L215.175 23.9457L210 20.1727ZM218.4 14.101H211.975L210 8.0542L208.025 14.101H201.6L206.8 17.849L204.825 23.8958L210.025 20.1477L213.225 17.849L218.4 14.101ZM236 20.1727L239.65 19.2482L241.175 23.9457L236 20.1727ZM244.4 14.101H237.975L236 8.0542L234.025 14.101H227.6L232.8 17.849L230.825 23.8958L236.025 20.1477L239.225 17.849L244.4 14.101Z" fill="white"/>
</g>
<defs>
<clipPath id="clip0_372_1098">
<rect width="96" height="24" fill="white" transform="matrix(-1 0 0 -1 100 28)"/>
</clipPath>
<clipPath id="clip1_372_1098">
<rect width="128" height="24" fill="white" transform="translate(120 4)"/>
</clipPath>
</defs>
</svg>
