<svg width="128" height="24" viewBox="0 0 128 24" fill="none" xmlns="http://www.w3.org/2000/svg">
<g clip-path="url(#clip0_552_1718)">
<path d="M0 0.00631714H24V23.9935H0V0.00631714ZM26 0.00631714H50V23.9935H26V0.00631714ZM52 0.00631714H76V23.9935H52V0.00631714ZM78 0.00631714H102V23.9935H78V0.00631714ZM104 0.00631714H128V23.9935H104V0.00631714Z" fill="#00B67A"/>
<path d="M11.9996 16.1728L15.6496 15.2483L17.1746 19.9458L11.9996 16.1728ZM20.3996 10.101H13.9746L11.9996 4.05423L10.0246 10.101H3.59961L8.79961 13.849L6.82461 19.8958L12.0246 16.1478L15.2246 13.849L20.3996 10.101ZM37.9996 16.1728L41.6496 15.2483L43.1746 19.9458L37.9996 16.1728ZM46.3996 10.101H39.9746L37.9996 4.05423L36.0246 10.101H29.5996L34.7996 13.849L32.8246 19.8958L38.0246 16.1478L41.2246 13.849L46.3996 10.101ZM63.9996 16.1728L67.6496 15.2483L69.1746 19.9458L63.9996 16.1728ZM72.3996 10.101H65.9746L63.9996 4.05423L62.0246 10.101H55.5996L60.7996 13.849L58.8246 19.8958L64.0246 16.1478L67.2246 13.849L72.3996 10.101ZM89.9996 16.1728L93.6496 15.2483L95.1746 19.9458L89.9996 16.1728ZM98.3996 10.101H91.9746L89.9996 4.05423L88.0246 10.101H81.5996L86.7996 13.849L84.8246 19.8958L90.0246 16.1478L93.2246 13.849L98.3996 10.101ZM116 16.1728L119.65 15.2483L121.175 19.9458L116 16.1728ZM124.4 10.101H117.975L116 4.05423L114.025 10.101H107.6L112.8 13.849L110.825 19.8958L116.025 16.1478L119.225 13.849L124.4 10.101Z" fill="white"/>
</g>
<defs>
<clipPath id="clip0_552_1718">
<rect width="128" height="24" fill="white"/>
</clipPath>
</defs>
</svg>
