<svg width="216" height="43" viewBox="0 0 216 43" fill="none" xmlns="http://www.w3.org/2000/svg">
<path fill-rule="evenodd" clip-rule="evenodd" d="M115.402 3.42774C116.143 3.89095 116.514 4.4468 116.885 5.18793L119.756 4.26151C119.108 2.68661 118.089 1.48227 116.792 0.741133C115.773 0.185283 114.569 0 113.549 0C112.53 0 111.419 0.0926416 110.307 0.648491C108.917 1.29698 107.806 2.77925 107.806 4.4468C107.806 5.5585 108.176 6.76284 109.103 7.50397C109.844 8.2451 110.863 8.70831 112.067 8.98624L114.939 9.82001C115.588 9.91265 115.958 10.1906 116.329 10.4685C116.607 10.7464 116.792 11.2096 116.792 11.5802C116.792 12.0434 116.607 12.5066 116.143 12.8772C115.588 13.2478 114.569 13.5257 113.735 13.5257C112.716 13.5257 111.511 13.1551 110.863 12.3213C110.492 11.8581 110.214 11.117 110.122 10.3759L107.157 11.2096C107.343 12.2287 107.806 13.3404 108.547 14.2668C109.844 15.8417 111.604 16.3976 113.642 16.3976C115.31 16.3976 116.699 16.2123 117.904 15.3785C119.201 14.5447 119.942 13.1551 119.942 11.7655C119.942 10.4685 119.386 9.3568 118.46 8.43039C117.718 7.7819 116.977 7.31869 115.588 6.94812L112.901 6.20699C112.16 5.92906 111.419 5.65114 111.141 5.37321C110.956 5.18793 110.863 4.91001 110.863 4.63208C110.863 4.16887 111.141 3.61302 111.697 3.3351C112.16 3.05717 112.808 2.87189 113.549 2.87189C114.291 2.87189 114.939 3.14981 115.402 3.42774ZM57.8719 0.370544V15.8417H55V0.370544H57.8719ZM71.7681 10.5611V0.370544H74.7327V15.8417H72.1387L65.0053 5.8364V15.9343H62.0408V0.370544H64.6347L71.7681 10.5611ZM89.4627 11.9507C90.1112 10.7464 90.3891 9.44942 90.3891 8.15244C90.3891 6.85546 90.1112 5.55847 89.4627 4.35413C88.1657 1.85281 85.5717 0.370544 82.9778 0.370544H77.6972V15.9343H82.9778C85.5717 15.9343 88.1657 14.3594 89.4627 11.9507ZM86.8687 5.74376C87.2393 6.39225 87.4246 7.22602 87.4246 8.15244C87.5172 9.07886 87.2393 9.91263 86.8687 10.7464C86.1276 12.2287 84.3674 13.2477 82.7925 13.2477H80.5691V3.24243H82.7925C84.5527 3.24243 86.1276 4.26149 86.8687 5.74376ZM105.49 10.0979C105.49 11.5802 105.026 12.8772 104.1 13.9889C102.896 15.4711 101.136 16.2123 99.1901 16.2123C97.2446 16.2123 95.3918 15.4711 94.2801 13.9889C93.4463 12.8772 92.8904 11.4875 92.8904 10.0979V0.463186H95.855V10.0979C95.855 10.839 96.1329 11.5802 96.5035 12.2287C97.1519 13.0624 98.171 13.5257 99.1901 13.5257C100.209 13.5257 101.228 13.0624 101.877 12.2287C102.34 11.5802 102.525 10.9317 102.525 10.0979V0.370544H105.49V10.0979ZM133.467 3.33508H128.65V15.9343H125.686V3.33508H120.776V0.370544H133.467V3.33508ZM147.364 15.9343L144.492 10.0979C145.233 9.72735 145.881 9.1715 146.252 8.61565C146.901 7.68923 147.271 6.67017 147.271 5.55847C147.271 4.44677 146.901 3.33508 146.252 2.5013C145.604 1.57489 144.677 0.926394 143.658 0.648469C143.195 0.463186 142.639 0.370544 142.083 0.370544H135.042V15.9343H138.007V10.6538H141.435L144.029 15.9343H147.364ZM142.176 7.87451H138.007V3.24243H142.176C142.732 3.24243 143.473 3.613 143.843 4.07621C144.214 4.44678 144.399 5.00262 144.399 5.55847C144.399 6.02168 144.214 6.57753 143.936 6.9481C143.473 7.50395 142.732 7.87451 142.176 7.87451ZM161.075 0.370544L155.794 9.54206V15.8417H152.83V9.54206L147.549 0.370544H150.977L154.312 6.20697L157.647 0.370544H161.075ZM120.776 23.6236C120.405 22.8825 120.034 22.3266 119.293 21.8634C118.83 21.5855 118.182 21.3076 117.44 21.3076C116.699 21.3076 116.051 21.4928 115.588 21.7708C115.032 22.0487 114.754 22.6045 114.754 23.0677C114.754 23.3457 114.846 23.6236 115.032 23.8089C115.31 24.0868 116.051 24.3647 116.792 24.6426L116.792 24.6427L119.479 25.3838C120.868 25.7544 121.609 26.2176 122.35 26.8661C123.277 27.7925 123.833 28.9042 123.833 30.2012C123.833 31.5908 123.092 32.9804 121.795 33.8142C120.59 34.6479 119.201 34.8332 117.533 34.8332C115.495 34.8332 113.735 34.2774 112.438 32.7025C111.697 31.7761 111.233 30.6644 111.048 29.6453L114.013 28.8115C114.105 29.5527 114.383 30.2938 114.754 30.757C115.402 31.5908 116.607 31.9613 117.626 31.9613C118.459 31.9613 119.479 31.6834 120.034 31.3129C120.498 30.9423 120.683 30.4791 120.683 30.0159C120.683 29.6453 120.498 29.1821 120.22 28.9042C119.849 28.6262 119.479 28.3483 118.83 28.2557L115.958 27.4219C114.754 27.144 113.735 26.6808 112.994 25.9396C112.067 25.1985 111.697 23.9942 111.697 22.8825C111.697 21.2149 112.808 19.7327 114.198 19.0842C115.31 18.5283 116.421 18.4357 117.44 18.4357C118.459 18.4357 119.664 18.621 120.683 19.1768C121.98 19.9179 122.999 21.1223 123.647 22.6972L120.776 23.6236ZM55 26.6808C55 28.8116 55.6485 30.757 56.8528 32.2393C58.2425 33.9068 60.3732 34.7406 62.5966 34.7406C64.82 34.7406 66.9508 33.9995 68.3404 32.2393C69.6374 30.6644 70.1932 28.8116 70.1932 26.6808C70.1006 24.6427 69.6374 22.6972 68.3404 21.1223C66.9508 19.4547 64.82 18.621 62.5966 18.621C60.2806 18.621 58.2425 19.4547 56.8528 21.1223C55.5558 22.6046 55 24.55 55 26.6808ZM66.9508 26.6808C66.9508 28.0704 66.6728 29.46 65.9317 30.4791C65.1906 31.4982 63.8936 31.9614 62.5966 32.054C61.2996 32.054 60.0026 31.4982 59.2615 30.4791C58.5204 29.3674 58.2425 28.0704 58.2425 26.6808C58.2425 25.2912 58.4277 23.9015 59.2615 22.8825C60.0026 21.8634 61.2996 21.3076 62.5966 21.3076C63.8936 21.3076 65.1906 21.8634 65.9317 22.8825C66.6728 23.9015 66.9508 25.2912 66.9508 26.6808ZM73.343 18.8989H70.2859L75.0106 34.3701H79.3647L84.1821 18.8989H81.1249L77.234 31.5908L73.343 18.8989ZM88.5363 21.8635V25.1986H94.4653V28.1631H88.5363V31.4982H95.7623V34.3701H85.5717V18.8989H95.6697V21.8635H88.5363ZM110.4 34.3701L107.62 28.6263C108.362 28.2557 108.917 27.6999 109.381 27.144C110.029 26.2176 110.4 25.1986 110.4 24.0869C110.4 22.9752 110.029 21.8635 109.381 21.0297C108.732 20.1033 107.806 19.4548 106.787 19.1769C106.323 18.9916 105.768 18.8989 105.212 18.8989H98.171V34.3701H101.136V29.0895H104.471L107.065 34.3701H110.4ZM105.304 26.4029H101.136V21.7708H105.304C105.86 21.7708 106.601 22.1414 106.972 22.6046C107.343 22.9752 107.528 23.531 107.528 24.0869C107.528 24.5501 107.343 25.1059 107.065 25.4765C106.601 26.0323 105.86 26.4029 105.304 26.4029ZM128.928 34.3701V18.8989H125.963V34.3701H128.928ZM146.067 26.1249V26.6808C146.067 28.8116 145.511 30.6644 144.214 32.2393C142.824 33.9068 140.786 34.7406 138.47 34.7406C136.247 34.7406 134.116 33.9068 132.726 32.2393C131.429 30.757 130.966 28.7189 130.873 26.6808C130.873 24.55 131.429 22.6972 132.726 21.1223C134.023 19.4547 136.247 18.621 138.47 18.621C140.786 18.621 142.824 19.5474 144.214 21.1223C144.492 21.4002 144.677 21.7708 144.862 22.1413L144.862 22.1414L142.176 23.3457L141.898 22.7898C141.157 21.7708 139.86 21.2149 138.563 21.2149C137.266 21.2149 135.969 21.7708 135.135 22.7898C134.394 23.8089 134.116 25.1985 134.116 26.5882C134.116 27.9778 134.394 29.2748 135.135 30.3865C135.876 31.4055 137.173 31.9614 138.563 31.9614C139.86 31.9614 141.157 31.4055 141.898 30.3865C142.361 29.8306 142.546 29.1821 142.732 28.441H139.119V26.1249H146.067ZM160.889 34.3701V18.8989H157.925V26.3103H150.977V18.8989H148.012V34.3701H150.977V29.1821H157.925V34.3701H160.889ZM175.064 21.8635H170.246V34.3701H167.282V21.8635H162.372V18.8989H175.064V21.8635Z" fill="#3DB9D8"/>
<path fill-rule="evenodd" clip-rule="evenodd" d="M40.3489 0H5.65114C2.50132 0 0 2.59396 0 5.74378V43L9 34H40.3489C43.4987 34 46 31.4987 46 28.3489V5.74378C46 2.59396 43.4987 0.0926416 40.3489 0Z" fill="#3DB9D8"/>
<path fill-rule="evenodd" clip-rule="evenodd" d="M23 6L26.6667 12.5625L34 13.9688L28.9231 19.5L29.7692 27L23 23.8125L16.2308 27L17.0769 19.5L12 13.9688L19.3333 12.5625L23 6Z" fill="white"/>
</svg>
