<svg width="56" height="56" viewBox="0 0 56 56" fill="none" xmlns="http://www.w3.org/2000/svg">
<g clip-path="url(#clip0_779_280)">
<path d="M22.1673 9.33337H12.834C10.901 9.33337 9.33398 10.9004 9.33398 12.8334V22.1667C9.33398 24.0997 10.901 25.6667 12.834 25.6667H22.1673C24.1003 25.6667 25.6673 24.0997 25.6673 22.1667V12.8334C25.6673 10.9004 24.1003 9.33337 22.1673 9.33337Z" fill="#F7CE46"/>
<path opacity="0.7" fill-rule="evenodd" clip-rule="evenodd" d="M12.834 30.3334H22.1673C24.1003 30.3334 25.6673 31.9004 25.6673 33.8334V43.1667C25.6673 45.0997 24.1003 46.6667 22.1673 46.6667H12.834C10.901 46.6667 9.33398 45.0997 9.33398 43.1667V33.8334C9.33398 31.9004 10.901 30.3334 12.834 30.3334ZM33.834 9.33337H43.1673C45.1003 9.33337 46.6673 10.9004 46.6673 12.8334V22.1667C46.6673 24.0997 45.1003 25.6667 43.1673 25.6667H33.834C31.901 25.6667 30.334 24.0997 30.334 22.1667V12.8334C30.334 10.9004 31.901 9.33337 33.834 9.33337ZM33.834 30.3334H43.1673C45.1003 30.3334 46.6673 31.9004 46.6673 33.8334V43.1667C46.6673 45.0997 45.1003 46.6667 43.1673 46.6667H33.834C31.901 46.6667 30.334 45.0997 30.334 43.1667V33.8334C30.334 31.9004 31.901 30.3334 33.834 30.3334Z" fill="#F7CE46"/>
</g>
<defs>
<clipPath id="clip0_779_280">
<rect width="56" height="56" fill="white"/>
</clipPath>
</defs>
</svg>
