<svg width="56" height="56" viewBox="0 0 56 56" fill="none" xmlns="http://www.w3.org/2000/svg">
<g clip-path="url(#clip0_779_1365)">
<path d="M20.1711 8.11588C19.5094 6.51744 17.7648 5.66666 16.0977 6.12213L8.53516 8.18463C7.03984 8.59713 6 9.95494 6 11.5018C6 32.7628 23.2391 50.0018 44.5 50.0018C46.0469 50.0018 47.4047 48.962 47.8172 47.4667L49.8797 39.9042C50.3352 38.237 49.4844 36.4924 47.8859 35.8307L39.6359 32.3932C38.2352 31.8089 36.6109 32.2128 35.657 33.3901L32.1852 37.6268C26.1352 34.7651 21.2367 29.8667 18.375 23.8167L22.6117 20.3534C23.7891 19.3909 24.193 17.7753 23.6086 16.3745L20.1711 8.12447V8.11588Z" fill="#F7CE46"/>
</g>
<defs>
<clipPath id="clip0_779_1365">
<rect width="44" height="44" fill="white" transform="translate(6 6)"/>
</clipPath>
</defs>
</svg>
