<svg width="56" height="56" viewBox="0 0 56 56" fill="none" xmlns="http://www.w3.org/2000/svg">
<path opacity="0.4" d="M46.666 9.33337H9.33268C6.75535 9.33337 4.66602 11.4227 4.66602 14V42C4.66602 44.5774 6.75535 46.6667 9.33268 46.6667H46.666C49.2433 46.6667 51.3327 44.5774 51.3327 42V14C51.3327 11.4227 49.2433 9.33337 46.666 9.33337Z" fill="#F7CE46"/>
<path opacity="0.5" fill-rule="evenodd" clip-rule="evenodd" d="M9.33398 46.6666L24.5007 25.6666L39.6673 46.6666H9.33398Z" fill="#F7CE46"/>
<path fill-rule="evenodd" clip-rule="evenodd" d="M25.666 46.6666L36.166 32.6666L46.666 46.6666H25.666Z" fill="#F7CE46"/>
<path opacity="0.5" d="M43.166 23.3334C45.099 23.3334 46.666 21.7664 46.666 19.8334C46.666 17.9004 45.099 16.3334 43.166 16.3334C41.233 16.3334 39.666 17.9004 39.666 19.8334C39.666 21.7664 41.233 23.3334 43.166 23.3334Z" fill="#F7CE46"/>
</svg>
