<svg width="56" height="56" viewBox="0 0 56 56" fill="none" xmlns="http://www.w3.org/2000/svg">
<path d="M33.2487 45.4983V34.9981C33.2487 34.534 33.0643 34.0889 32.7362 33.7607C32.408 33.4325 31.9628 33.2481 31.4987 33.2481H24.4987C24.0346 33.2481 23.5895 33.4325 23.2613 33.7607C22.9331 34.0889 22.7487 34.534 22.7487 34.9981V45.4983C22.7487 45.9624 22.5644 46.4075 22.2362 46.7357C21.9081 47.0639 21.463 47.2483 20.9989 47.2483L10.5002 47.2497C10.2704 47.2498 10.0428 47.2045 9.83046 47.1166C9.61811 47.0286 9.42517 46.8997 9.26264 46.7372C9.10011 46.5747 8.97119 46.3818 8.88323 46.1695C8.79527 45.9571 8.75 45.7296 8.75 45.4997V25.274C8.75 25.0302 8.80095 24.7891 8.89957 24.5661C8.99819 24.3431 9.14232 24.1432 9.32271 23.9792L26.8215 8.06849C27.1436 7.7756 27.5634 7.6133 27.9987 7.61328C28.4341 7.61327 28.8539 7.77554 29.176 8.06841L46.6772 23.9792C46.8576 24.1432 47.0018 24.3431 47.1004 24.5661C47.199 24.7891 47.25 25.0303 47.25 25.2741V45.4997C47.25 45.7296 47.2047 45.9571 47.1168 46.1695C47.0288 46.3818 46.8999 46.5747 46.7374 46.7373C46.5748 46.8998 46.3819 47.0287 46.1695 47.1166C45.9572 47.2045 45.7296 47.2498 45.4998 47.2497L34.9985 47.2484C34.5344 47.2483 34.0893 47.0639 33.7612 46.7357C33.4331 46.4075 33.2487 45.9624 33.2487 45.4983Z" fill="#F7CE46"/>
</svg>
